<?xml version="1.0" encoding="UTF-8" standalone="no"?>
<svg width="38px" height="37px" viewBox="0 0 38 37" version="1.1" xmlns="http://www.w3.org/2000/svg" xmlns:xlink="http://www.w3.org/1999/xlink">
    <!-- Generator: Sketch 50.2 (55047) - http://www.bohemiancoding.com/sketch -->
    <title>ico_mic copy</title>
    <desc>Created with Sketch.</desc>
    <defs>
        <path d="M0.5,30.5 L30.3399067,0.660093294" id="path-1"></path>
        <filter x="-15.1%" y="-15.1%" width="130.2%" height="130.2%" filterUnits="objectBoundingBox" id="filter-2">
            <feMorphology radius="2.5" operator="dilate" in="SourceAlpha" result="shadowSpreadOuter1"></feMorphology>
            <feOffset dx="0" dy="0" in="shadowSpreadOuter1" result="shadowOffsetOuter1"></feOffset>
            <feMorphology radius="2.5" operator="erode" in="SourceAlpha" result="shadowInner"></feMorphology>
            <feOffset dx="0" dy="0" in="shadowInner" result="shadowInner"></feOffset>
            <feComposite in="shadowOffsetOuter1" in2="shadowInner" operator="out" result="shadowOffsetOuter1"></feComposite>
            <feColorMatrix values="0 0 0 0 0.619607843   0 0 0 0 0.780392157   0 0 0 0 0.945098039  0 0 0 1 0" type="matrix" in="shadowOffsetOuter1"></feColorMatrix>
        </filter>
    </defs>
    <g id="pagina-call" stroke="none" stroke-width="1" fill="none" fill-rule="evenodd">
        <g id="iPad" transform="translate(-564.000000, -667.000000)">
            <g id="ico_mic-copy" transform="translate(567.000000, 670.000000)">
                <path d="M16.2,22.4 C19.7296,22.4 22.6,19.528 22.6,16 L22.6,6.4 C22.6,2.8704 19.7296,0 16.2,0 C12.6704,0 9.8,2.8704 9.8,6.4 L9.8,16 C9.8,19.528 12.6704,22.4 16.2,22.4 Z" id="Shape" fill="#FFFFFF" fill-rule="nonzero"></path>
                <path d="M27.4,16 L27.4,12.8 C27.4,11.9168 26.6848,11.2 25.8,11.2 C24.9152,11.2 24.2,11.9168 24.2,12.8 L24.2,16 C24.2,20.4112 20.6112,24 16.2,24 C11.7888,24 8.2,20.4112 8.2,16 L8.2,12.8 C8.2,11.9168 7.4848,11.2 6.6,11.2 C5.7152,11.2 5,11.9168 5,12.8 L5,16 C5,21.632 9.1808,26.2912 14.6,27.072 L14.6,28.8 L9.8,28.8 C8.9152,28.8 8.2,29.5152 8.2,30.4 C8.2,31.2848 8.9152,32 9.8,32 L22.6,32 C23.4848,32 24.2,31.2848 24.2,30.4 C24.2,29.5152 23.4848,28.8 22.6,28.8 L17.8,28.8 L17.8,27.072 C23.2192,26.2912 27.4,21.632 27.4,16 Z" id="Shape" fill="#FFFFFF" fill-rule="nonzero"></path>
                <g id="Line" stroke-linecap="square">
                    <use fill="black" fill-opacity="1" filter="url(#filter-2)" xlink:href="#path-1"></use>
                    <use stroke="#FFFFFF" stroke-width="3" xlink:href="#path-1"></use>
                </g>
            </g>
        </g>
    </g>
</svg>