<?xml version="1.0" encoding="UTF-8" standalone="no"?>
<svg width="57px" height="67px" viewBox="0 0 57 67" version="1.1" xmlns="http://www.w3.org/2000/svg" xmlns:xlink="http://www.w3.org/1999/xlink">
    <!-- Generator: Sketch 48.2 (47327) - http://www.bohemiancoding.com/sketch -->
    <title>logo</title>
    <desc>Created with Sketch.</desc>
    <defs></defs>
    <g id="iPad" stroke="none" stroke-width="1" fill="none" fill-rule="evenodd" transform="translate(-59.000000, -15.000000)">
        <g id="logo" transform="translate(59.000000, 15.000000)">
            <circle id="Oval" fill="#00057A" fill-rule="nonzero" cx="47" cy="13" r="7"></circle>
            <circle id="Oval" fill="#00057A" fill-rule="nonzero" cx="11" cy="13" r="7"></circle>
            <circle id="Oval" fill="#D80000" fill-rule="nonzero" cx="29.5" cy="8.5" r="8.5"></circle>
            <path d="M47.2,22.8333333 C45.8,22.8333333 42.72,23.4 41.6,24.25 C41.6,24.25 43,27.3666667 43,31.3333333 C43,31.3333333 39.64,20 29,20 C18.36,20 15,31.3333333 15,31.3333333 C15,27.3666667 16.4,24.25 16.4,24.25 C15.28,23.4 12.2,22.8333333 10.8,22.8333333 C6.04,22.8333333 1,28.5 1,32.1833333 L1,48.3333333 C1,51.45 3.52,54 6.6,54 L14.72,54 C17.24,51.45 21.72,48.3333333 29,48.3333333 C36.28,48.3333333 40.76,51.45 43.28,54 L51.4,54 C54.48,54 57,51.45 57,48.3333333 L57,32.1833333 C57,28.5 51.4,22.8333333 47.2,22.8333333 Z M29,45.5 C25.08,45.5 22,42.3833333 22,38.4166667 C22,34.45 25.08,31.3333333 29,31.3333333 C32.92,31.3333333 36,34.45 36,38.4166667 C36,42.3833333 32.92,45.5 29,45.5 Z" id="Shape" fill="#00057A" fill-rule="nonzero"></path>
            <path d="M0,57.2046036 L2.73970487,57.2046036 L4.10306511,63.8030691 L5.46642536,57.2046036 L8.20613023,57.2046036 L5.58328481,66.8465473 L2.62284542,66.8465473 L0,57.2046036 Z M13.9524412,66.7953964 L11.4075021,66.7953964 L11.4075021,59.4168798 L9.12225062,59.4168798 L9.12225062,57.2046036 L16.2376927,57.2046036 L16.2376927,59.4168798 L13.9524412,59.4168798 L13.9524412,66.7953964 Z M17.4654383,62 C17.4740946,60.2608609 17.8311615,58.9927576 18.5366499,58.1956522 C19.2421382,57.3985467 20.3263234,57 21.7892379,57 C22.3778662,57 22.8452993,57.0447566 23.1915513,57.1342711 C23.5378032,57.2237856 23.8234568,57.3111675 24.0485206,57.3964194 L24.0225518,59.6342711 C23.7195813,59.5319688 23.4209435,59.4488494 23.1266294,59.3849105 C22.8323152,59.3209715 22.4817404,59.2890026 22.0748943,59.2890026 C21.745955,59.2890026 21.4538093,59.3316279 21.1984484,59.4168798 C20.9430876,59.5021317 20.7288474,59.6470578 20.5557215,59.8516624 C20.3825955,60.056267 20.2505889,60.3333316 20.1596978,60.6828645 C20.0688066,61.0323973 20.0233618,61.4714381 20.0233618,62 C20.0233618,62.5370871 20.0688066,62.9803904 20.1596978,63.3299233 C20.2505889,63.6794561 20.3825955,63.9565207 20.5557215,64.1611253 C20.7288474,64.3657299 20.9430876,64.5085247 21.1984484,64.5895141 C21.4538093,64.6705034 21.745955,64.7109974 22.0748943,64.7109974 C22.4817404,64.7109974 22.8323152,64.6790285 23.1266294,64.6150895 C23.4209435,64.5511506 23.7195813,64.4680312 24.0225518,64.3657289 L24.0485206,66.6035806 C23.8234568,66.6973577 23.5378032,66.7868708 23.1915513,66.8721228 C22.8452993,66.9573747 22.3778662,67 21.7892379,67 C20.3349797,67 19.2507945,66.6035845 18.5366499,65.8107417 C17.8225052,65.0178988 17.4654383,63.7476643 17.4654383,62 Z M28.5555443,62 C28.5642006,60.2608609 28.9212676,58.9927576 29.6267559,58.1956522 C30.3322443,57.3985467 31.4164294,57 32.8793439,57 C33.4679723,57 33.9354054,57.0447566 34.2816573,57.1342711 C34.6279093,57.2237856 34.9135629,57.3111675 35.1386266,57.3964194 L35.1126579,59.6342711 C34.8096874,59.5319688 34.5110496,59.4488494 34.2167354,59.3849105 C33.9224213,59.3209715 33.5718464,59.2890026 33.1650004,59.2890026 C32.836061,59.2890026 32.5439153,59.3316279 32.2885545,59.4168798 C32.0331937,59.5021317 31.8189535,59.6470578 31.6458275,59.8516624 C31.4727016,60.056267 31.340695,60.3333316 31.2498038,60.6828645 C31.1589127,61.0323973 31.1134678,61.4714381 31.1134678,62 C31.1134678,62.5370871 31.1589127,62.9803904 31.2498038,63.3299233 C31.340695,63.6794561 31.4727016,63.9565207 31.6458275,64.1611253 C31.8189535,64.3657299 32.0331937,64.5085247 32.2885545,64.5895141 C32.5439153,64.6705034 32.836061,64.7109974 33.1650004,64.7109974 C33.5718464,64.7109974 33.9224213,64.6790285 34.2167354,64.6150895 C34.5110496,64.5511506 34.8096874,64.4680312 35.1126579,64.3657289 L35.1386266,66.6035806 C34.9135629,66.6973577 34.6279093,66.7868708 34.2816573,66.8721228 C33.9354054,66.9573747 33.4679723,67 32.8793439,67 C31.4250857,67 30.3409006,66.6035845 29.6267559,65.8107417 C28.9126113,65.0178988 28.5555443,63.7476643 28.5555443,62 Z M39.6514212,67 C39.036824,67 38.523946,66.927537 38.1127718,66.7826087 C37.7015976,66.6376804 37.3704991,66.4202913 37.1194665,66.1304348 C36.8684338,65.8405783 36.6909823,65.4846568 36.5871067,65.0626598 C36.4832312,64.6406629 36.4312941,64.1526029 36.4312941,63.5984655 C36.4312941,63.044328 36.4832312,62.5562681 36.5871067,62.1342711 C36.6909823,61.7122741 36.8684338,61.3563527 37.1194665,61.0664962 C37.3704991,60.7766396 37.7015976,60.5592505 38.1127718,60.4143223 C38.523946,60.269394 39.036824,60.1969309 39.6514212,60.1969309 C40.2660184,60.1969309 40.7788964,60.269394 41.1900706,60.4143223 C41.6012448,60.5592505 41.9323433,60.7766396 42.1833759,61.0664962 C42.4344086,61.3563527 42.6118601,61.7122741 42.7157356,62.1342711 C42.8196112,62.5562681 42.8715482,63.044328 42.8715482,63.5984655 C42.8715482,64.1526029 42.8196112,64.6406629 42.7157356,65.0626598 C42.6118601,65.4846568 42.4344086,65.8405783 42.1833759,66.1304348 C41.9323433,66.4202913 41.6012448,66.6376804 41.1900706,66.7826087 C40.7788964,66.927537 40.2660184,67 39.6514212,67 Z M39.6514212,65.1074169 C39.9370791,65.1074169 40.1340069,65.0029848 40.2422106,64.7941176 C40.3504144,64.5852504 40.4045154,64.1867037 40.4045154,63.5984655 C40.4045154,63.0102272 40.3504144,62.6116805 40.2422106,62.4028133 C40.1340069,62.1939461 39.9370791,62.0895141 39.6514212,62.0895141 C39.3657633,62.0895141 39.1688355,62.1939461 39.0606318,62.4028133 C38.952428,62.6116805 38.898327,63.0102272 38.898327,63.5984655 C38.898327,64.1867037 38.952428,64.5852504 39.0606318,64.7941176 C39.1688355,65.0029848 39.3657633,65.1074169 39.6514212,65.1074169 Z M46.1508264,60.8107417 C46.4624532,60.6146623 46.8043718,60.4633424 47.1765927,60.3567775 C47.5488135,60.2502126 47.929685,60.1969309 48.3192184,60.1969309 C48.7953148,60.1969309 49.1826784,60.2544751 49.4813207,60.3695652 C49.779963,60.4846553 50.0158436,60.642369 50.1889696,60.842711 C50.3620956,61.043053 50.4811179,61.2796235 50.5460401,61.5524297 C50.6109624,61.8252358 50.643423,62.1193505 50.643423,62.4347826 L50.643423,66.7953964 L48.0984839,66.7953964 L48.0984839,62.6649616 C48.0984839,62.323954 47.9340167,62.1534527 47.6050773,62.1534527 C47.4232951,62.1534527 47.2609919,62.1790279 47.118163,62.230179 C46.975334,62.2813302 46.8606398,62.3324806 46.7740768,62.3836317 L46.7740768,66.7953964 L44.2291377,66.7953964 L44.2291377,60.4015345 L45.9171075,60.4015345 L46.1508264,60.8107417 Z M56.9610469,59.1867008 C56.9177654,59.1611252 56.8182194,59.1248937 56.662406,59.0780051 C56.5065927,59.0311166 56.3031727,59.0076726 56.05214,59.0076726 C55.81842,59.0076726 55.6431325,59.0630855 55.5262725,59.173913 C55.4094125,59.2847405 55.3509833,59.4339292 55.3509833,59.6214834 L55.3509833,60.4015345 L56.8571718,60.4015345 L56.8571718,62.3069054 L55.3509833,62.3069054 L55.3509833,66.7953964 L52.8060442,66.7953964 L52.8060442,62.3069054 L51.7802779,62.3069054 L51.7802779,60.7468031 L52.8060442,60.4654731 L52.8060442,59.3401535 C52.8060442,58.564361 53.0159563,57.9803941 53.4357868,57.5882353 C53.8556173,57.1960765 54.5372906,57 55.4808272,57 C55.8703606,57 56.197131,57.0277065 56.4611481,57.0831202 C56.7251652,57.138534 56.9047807,57.1875531 57,57.230179 L56.9610469,59.1867008 Z" id="VTC-Conf" fill="#00057A"></path>
        </g>
    </g>
</svg>